<?xml version="1.0" standalone="no"?><!DOCTYPE svg PUBLIC "-//W3C//DTD SVG 1.1//EN" "http://www.w3.org/Graphics/SVG/1.1/DTD/svg11.dtd"><svg t="1619711166728" class="icon" viewBox="0 0 1024 1024" version="1.1" xmlns="http://www.w3.org/2000/svg" p-id="969" xmlns:xlink="http://www.w3.org/1999/xlink" width="200" height="200"><defs><style type="text/css"></style></defs><path d="M877.449108 686.104325l-193.857527 193.859527-60.579852-60.583852 193.857527-193.857527z" fill="#AD4826" p-id="970"></path><path d="M938.00096 746.734177l-193.857527 193.859527-60.579852-60.581852 193.857527-193.859527z" fill="#E66032" p-id="971"></path><path d="M938.02696 746.674177l-193.849527 193.867527 63.383845 63.383845c26.765935 26.765935 70.167829 26.765935 96.933764 0l96.933763-96.933763c26.765935-26.765935 26.765935-70.167829 0-96.933764l-63.401845-63.383845z" fill="#FADFD6" p-id="972"></path><path d="M320.098469 128.745686l-96.675764 96.659764 499.780779 493.782794 93.661772-93.677771z" fill="#E66032" p-id="973"></path><path d="M126.230942 322.595212L622.997729 819.378l100.205755-100.189756-499.780779-493.782794z" fill="#EB805B" p-id="974"></path><path d="M2.499244 6.741984l79.729805 190.235535 111.155729-111.155729z" fill="#AD4826" p-id="975"></path><path d="M82.229049 196.977519l44.001893 125.617693 193.867527-193.867526-126.713691-42.905896z" fill="#FADFD6" p-id="976"></path><path d="M125.546943 991.603579l-96.933763-96.933763c-26.765935-26.765935-26.765935-70.167829 0-96.933764l777.678102-777.662101c26.765935-26.765935 70.167829-26.765935 96.933763 0l96.933763 96.933763c26.765935 26.765935 26.765935 70.167829 0 96.933764L222.480707 991.603579c-26.765935 26.765935-70.169829 26.765935-96.933764 0z" fill="#F5B945" p-id="977"></path><path d="M790.32932 195.527523a37.697908 37.697908 0 1 0 75.395816 0 37.697908 37.697908 0 1 0-75.395816 0Z" fill="#FFFFFF" p-id="978"></path><path d="M723.159484 248.533393l-24.22994 24.231941-72.685823-72.685822 24.231941-24.231941zM674.719603 345.463157l-24.229941 24.23194-96.929763-96.927763 24.23194-24.233941zM577.787839 393.929038l-24.23194 24.231941-72.685823-72.685822 24.233941-24.231941zM529.329958 490.872802l-24.233941 24.23194-96.927764-96.929763 24.231941-24.231941zM432.372194 539.306683l-24.23194 24.233941-72.685823-72.685822 24.231941-24.231941zM383.926313 636.246447l-24.231941 24.231941-96.929764-96.927764 24.231941-24.233941zM287.050549 684.710328l-24.231941 24.231941-72.685822-72.683822 24.231941-24.233941zM238.524668 781.710092l-24.235941 24.22794L117.374963 708.998269l24.233941-24.229941z" fill="#E66032" p-id="979"></path></svg>